<svg aria-hidden="true" style="position: absolute; width: 0; height: 0; overflow: hidden;" version="1.1" xmlns="http://www.w3.org/2000/svg" xmlns:xlink="http://www.w3.org/1999/xlink">
<defs>
<symbol id="icon-brush" viewBox="0 0 20 20">
<title>brush</title>
<path d="M2.763 13.563c-1.515 1.488-0.235 3.016-2.247 5.279-0.908 1.023 3.738 0.711 6.039-1.551 0.977-0.961 0.701-2.359-0.346-3.389-1.047-1.028-2.47-1.3-3.446-0.339zM19.539 0.659c-0.776-0.764-9.379 6.129-11.939 8.646-1.271 1.25-1.695 1.92-2.084 2.42-0.17 0.219 0.055 0.285 0.154 0.336 0.504 0.258 0.856 0.496 1.311 0.943s0.699 0.793 0.959 1.289c0.053 0.098 0.121 0.318 0.342 0.152 0.51-0.383 1.191-0.801 2.462-2.049 2.561-2.516 9.573-10.974 8.795-11.737z"></path>
</symbol>
<symbol id="icon-chat" viewBox="0 0 20 20">
<title>chat</title>
<path d="M5.8 12.2v-6.2h-3.8c-1.1 0-2 0.9-2 2v6c0 1.1 0.9 2 2 2h1v3l3-3h5c1.1 0 2-0.9 2-2v-1.82c-0.064 0.014-0.132 0.021-0.2 0.021l-7-0.001zM18 1h-9c-1.1 0-2 0.9-2 2v8h7l3 3v-3h1c1.1 0 2-0.899 2-2v-6c0-1.1-0.9-2-2-2z"></path>
</symbol>
<symbol id="icon-cog" viewBox="0 0 20 20">
<title>cog</title>
<path d="M16.783 10c0-1.049 0.646-1.875 1.617-2.443-0.176-0.584-0.407-1.145-0.692-1.672-1.089 0.285-1.97-0.141-2.711-0.883-0.741-0.74-0.968-1.621-0.683-2.711-0.527-0.285-1.088-0.518-1.672-0.691-0.568 0.97-1.595 1.615-2.642 1.615-1.048 0-2.074-0.645-2.643-1.615-0.585 0.173-1.144 0.406-1.671 0.691 0.285 1.090 0.059 1.971-0.684 2.711-0.74 0.742-1.621 1.168-2.711 0.883-0.285 0.527-0.517 1.088-0.691 1.672 0.97 0.568 1.615 1.394 1.615 2.443 0 1.047-0.645 2.074-1.615 2.643 0.175 0.584 0.406 1.144 0.691 1.672 1.090-0.285 1.971-0.059 2.711 0.682s0.969 1.623 0.684 2.711c0.527 0.285 1.087 0.518 1.672 0.693 0.568-0.973 1.595-1.617 2.643-1.617 1.047 0 2.074 0.645 2.643 1.617 0.584-0.176 1.144-0.408 1.672-0.693-0.285-1.088-0.059-1.969 0.683-2.711 0.741-0.74 1.622-1.166 2.711-0.883 0.285-0.527 0.517-1.086 0.692-1.672-0.973-0.569-1.619-1.395-1.619-2.442zM10 13.652c-2.018 0-3.653-1.635-3.653-3.652 0-2.018 1.636-3.654 3.653-3.654s3.652 1.637 3.652 3.654c0 2.018-1.634 3.652-3.652 3.652z"></path>
</symbol>
<symbol id="icon-home" viewBox="0 0 20 20">
<title>home</title>
<path d="M18.672 11h-1.672v6c0 0.445-0.194 1-1 1h-4v-6h-4v6h-4c-0.806 0-1-0.555-1-1v-6h-1.672c-0.598 0-0.47-0.324-0.060-0.748l8.024-8.032c0.195-0.202 0.451-0.302 0.708-0.312 0.257 0.010 0.513 0.109 0.708 0.312l8.023 8.031c0.411 0.425 0.539 0.749-0.059 0.749z"></path>
</symbol>
<symbol id="icon-lock" viewBox="0 0 20 20">
<title>lock</title>
<path d="M15.8 8h-1.8v-2.4c0-2.897-1.335-4.6-4-4.6s-4 1.703-4 4.6v2.4h-2c-0.553 0-1 0.646-1 1.199v7.801c0 0.549 0.428 1.139 0.951 1.307l1.197 0.387c0.524 0.167 1.402 0.306 1.952 0.306h5.8c0.549 0 1.428-0.139 1.951-0.307l1.196-0.387c0.524-0.167 0.953-0.757 0.953-1.306v-7.801c0-0.553-0.648-1.199-1.2-1.199zM12 8h-4v-2.801c0-1.445 0.797-2.199 2-2.199s2 0.754 2 2.199v2.801z"></path>
</symbol>
<symbol id="icon-new-message" viewBox="0 0 20 20">
<title>new-message</title>
<path d="M18.174 1.826c-1.102-1.102-2.082-0.777-2.082-0.777l-8.639 8.632-1.453 4.319 4.317-1.454 8.634-8.638c0 0 0.324-0.98-0.777-2.082zM10.605 11.605l-0.471 0.47-1.473 0.5c-0.104-0.24-0.234-0.477-0.498-0.74s-0.5-0.394-0.74-0.498l0.5-1.473 0.471-0.47c0 0 0.776-0.089 1.537 0.673 0.762 0.761 0.674 1.538 0.674 1.538zM16 17h-13v-13h5l2-2h-7c-1.1 0-2 0.9-2 2v13c0 1.1 0.9 2 2 2h13c1.1 0 2-0.9 2-2v-7l-2 2v5z"></path>
</symbol>
<symbol id="icon-text-document" viewBox="0 0 20 20">
<title>text-document</title>
<path d="M16 1h-12c-0.553 0-1 0.447-1 1v16c0 0.552 0.447 1 1 1h12c0.553 0 1-0.448 1-1v-16c0-0.552-0.447-1-1-1zM15 17h-10v-14h10v14zM13 5h-6v2h6v-2zM13 13h-6v2h6v-2zM13 9h-6v2h6v-2z"></path>
</symbol>
<symbol id="icon-v-card" viewBox="0 0 20 20">
<title>v-card</title>
<path d="M19 3h-18c-0.553 0-1 0.447-1 1v12c0 0.552 0.447 1 1 1h18c0.553 0 1-0.448 1-1v-12c0-0.552-0.447-1-1-1zM13 7h4v1h-4v-1zM11 14.803c-0.129-0.102-0.293-0.201-0.529-0.303-1.18-0.508-2.961-1.26-2.961-2.176 0-0.551 0.359-0.371 0.518-1.379 0.066-0.418 0.385-0.007 0.445-0.961 0-0.38-0.174-0.475-0.174-0.475s0.088-0.562 0.123-0.996c0.036-0.453-0.221-1.8-1.277-2.097-0.186-0.188-0.311-0.111 0.258-0.412-1.244-0.059-1.534 0.592-2.196 1.071-0.564 0.42-0.717 1.085-0.689 1.439 0.037 0.433 0.125 0.996 0.125 0.996s-0.175 0.094-0.175 0.474c0.061 0.954 0.38 0.543 0.445 0.961 0.158 1.008 0.519 0.828 0.519 1.379 0 0.916-1.781 1.668-2.961 2.176-0.203 0.088-0.349 0.173-0.471 0.26v-9.76h9v9.803zM18 11h-5v-1h5v1z"></path>
</symbol>
</defs>
</svg>
